<mxfile host="app.diagrams.net" modified="2020-10-21T19:08:44.272Z" agent="5.0 (Windows NT 6.3; Win64; x64) AppleWebKit/537.36 (KHTML, like Gecko) Chrome/86.0.4240.111 Safari/537.36" etag="fhbMGx6N54I1X_QJCWY_" version="13.8.1" type="github">
  <diagram id="ROL4SrjnmKpML7uY8HNK" name="Page-1">
    <mxGraphModel dx="1108" dy="482" grid="1" gridSize="10" guides="1" tooltips="1" connect="1" arrows="1" fold="1" page="1" pageScale="1" pageWidth="827" pageHeight="1169" math="0" shadow="0">
      <root>
        <mxCell id="0" />
        <mxCell id="1" parent="0" />
        <mxCell id="GpmKFEkGX9F1-uAtj0xu-2" value="D&amp;amp;R&amp;nbsp;&lt;br&gt;system&amp;nbsp;" style="ellipse;whiteSpace=wrap;html=1;aspect=fixed;" vertex="1" parent="1">
          <mxGeometry x="340" y="160" width="100" height="100" as="geometry" />
        </mxCell>
        <mxCell id="GpmKFEkGX9F1-uAtj0xu-3" value="" style="endArrow=classic;html=1;" edge="1" parent="1">
          <mxGeometry width="50" height="50" relative="1" as="geometry">
            <mxPoint x="300" y="130" as="sourcePoint" />
            <mxPoint x="350" y="180" as="targetPoint" />
          </mxGeometry>
        </mxCell>
        <mxCell id="GpmKFEkGX9F1-uAtj0xu-4" value="" style="endArrow=classic;html=1;" edge="1" parent="1">
          <mxGeometry width="50" height="50" relative="1" as="geometry">
            <mxPoint x="389.5" y="90" as="sourcePoint" />
            <mxPoint x="389.5" y="160" as="targetPoint" />
          </mxGeometry>
        </mxCell>
        <mxCell id="GpmKFEkGX9F1-uAtj0xu-5" value="" style="endArrow=classic;html=1;" edge="1" parent="1">
          <mxGeometry width="50" height="50" relative="1" as="geometry">
            <mxPoint x="490" y="120" as="sourcePoint" />
            <mxPoint x="430" y="180" as="targetPoint" />
          </mxGeometry>
        </mxCell>
        <mxCell id="GpmKFEkGX9F1-uAtj0xu-6" value="&lt;font style=&quot;font-size: 14px&quot;&gt;Donor&amp;nbsp;&lt;/font&gt;" style="text;html=1;resizable=0;autosize=1;align=center;verticalAlign=middle;points=[];fillColor=none;strokeColor=none;rounded=0;rotation=-30;" vertex="1" parent="1">
          <mxGeometry x="260" y="110" width="60" height="20" as="geometry" />
        </mxCell>
        <mxCell id="GpmKFEkGX9F1-uAtj0xu-7" value="&lt;font style=&quot;font-size: 14px&quot;&gt;Receiver&lt;/font&gt;" style="text;html=1;resizable=0;autosize=1;align=center;verticalAlign=middle;points=[];fillColor=none;strokeColor=none;rounded=0;rotation=30;" vertex="1" parent="1">
          <mxGeometry x="465" y="100" width="70" height="20" as="geometry" />
        </mxCell>
        <mxCell id="GpmKFEkGX9F1-uAtj0xu-8" value="Appointment details&amp;nbsp;" style="text;html=1;resizable=0;autosize=1;align=center;verticalAlign=middle;points=[];fillColor=none;strokeColor=none;rounded=0;" vertex="1" parent="1">
          <mxGeometry x="330" y="70" width="120" height="20" as="geometry" />
        </mxCell>
        <mxCell id="GpmKFEkGX9F1-uAtj0xu-9" value="" style="endArrow=classic;html=1;" edge="1" parent="1">
          <mxGeometry width="50" height="50" relative="1" as="geometry">
            <mxPoint x="260" y="195" as="sourcePoint" />
            <mxPoint x="340" y="225" as="targetPoint" />
          </mxGeometry>
        </mxCell>
        <mxCell id="GpmKFEkGX9F1-uAtj0xu-10" value="" style="endArrow=classic;html=1;" edge="1" parent="1">
          <mxGeometry width="50" height="50" relative="1" as="geometry">
            <mxPoint x="535" y="210" as="sourcePoint" />
            <mxPoint x="435" y="230" as="targetPoint" />
          </mxGeometry>
        </mxCell>
        <mxCell id="GpmKFEkGX9F1-uAtj0xu-11" value="Medical&amp;nbsp;&lt;br&gt;History" style="text;html=1;resizable=0;autosize=1;align=center;verticalAlign=middle;points=[];fillColor=none;strokeColor=none;rounded=0;rotation=-55;" vertex="1" parent="1">
          <mxGeometry x="210" y="170" width="60" height="30" as="geometry" />
        </mxCell>
        <mxCell id="GpmKFEkGX9F1-uAtj0xu-12" value="Hospital&lt;br&gt;data&amp;nbsp;&amp;nbsp;" style="text;html=1;resizable=0;autosize=1;align=center;verticalAlign=middle;points=[];fillColor=none;strokeColor=none;rounded=0;rotation=60;" vertex="1" parent="1">
          <mxGeometry x="520" y="185" width="60" height="30" as="geometry" />
        </mxCell>
        <mxCell id="GpmKFEkGX9F1-uAtj0xu-13" value="" style="endArrow=classic;html=1;exitX=0.22;exitY=0.94;exitDx=0;exitDy=0;exitPerimeter=0;" edge="1" parent="1" source="GpmKFEkGX9F1-uAtj0xu-2">
          <mxGeometry width="50" height="50" relative="1" as="geometry">
            <mxPoint x="360" y="260" as="sourcePoint" />
            <mxPoint x="270" y="340" as="targetPoint" />
          </mxGeometry>
        </mxCell>
        <mxCell id="GpmKFEkGX9F1-uAtj0xu-14" value="" style="endArrow=classic;html=1;exitX=0.79;exitY=0.94;exitDx=0;exitDy=0;exitPerimeter=0;" edge="1" parent="1" source="GpmKFEkGX9F1-uAtj0xu-2">
          <mxGeometry width="50" height="50" relative="1" as="geometry">
            <mxPoint x="430" y="260" as="sourcePoint" />
            <mxPoint x="520" y="340" as="targetPoint" />
          </mxGeometry>
        </mxCell>
        <mxCell id="GpmKFEkGX9F1-uAtj0xu-15" value="" style="endArrow=classic;html=1;exitX=0.22;exitY=0.94;exitDx=0;exitDy=0;exitPerimeter=0;" edge="1" parent="1">
          <mxGeometry width="50" height="50" relative="1" as="geometry">
            <mxPoint x="389.5" y="260" as="sourcePoint" />
            <mxPoint x="389.5" y="376" as="targetPoint" />
          </mxGeometry>
        </mxCell>
        <mxCell id="GpmKFEkGX9F1-uAtj0xu-16" value="Profile Generation&amp;nbsp;" style="text;html=1;resizable=0;autosize=1;align=center;verticalAlign=middle;points=[];fillColor=none;strokeColor=none;rounded=0;" vertex="1" parent="1">
          <mxGeometry x="220" y="340" width="120" height="20" as="geometry" />
        </mxCell>
        <mxCell id="GpmKFEkGX9F1-uAtj0xu-17" value="Appointment&amp;nbsp;&lt;br&gt;Generation&amp;nbsp;" style="text;html=1;resizable=0;autosize=1;align=center;verticalAlign=middle;points=[];fillColor=none;strokeColor=none;rounded=0;" vertex="1" parent="1">
          <mxGeometry x="349" y="375" width="90" height="30" as="geometry" />
        </mxCell>
        <mxCell id="GpmKFEkGX9F1-uAtj0xu-18" value="Donation requirements&amp;nbsp;" style="text;html=1;resizable=0;autosize=1;align=center;verticalAlign=middle;points=[];fillColor=none;strokeColor=none;rounded=0;" vertex="1" parent="1">
          <mxGeometry x="465" y="340" width="140" height="20" as="geometry" />
        </mxCell>
      </root>
    </mxGraphModel>
  </diagram>
</mxfile>
